<?xml version="1.0" encoding="utf-8"?>
<!-- Generator: Adobe Illustrator 24.3.0, SVG Export Plug-In . SVG Version: 6.00 Build 0)  -->
<svg version="1.1" id="Layer_1" xmlns="http://www.w3.org/2000/svg" xmlns:xlink="http://www.w3.org/1999/xlink" x="0px" y="0px"
	 viewBox="0 0 85 85" style="enable-background:new 0 0 85 85;" xml:space="preserve">
<style type="text/css">
	.st0{fill:#FFFFFF;}
	.st1{fill:#8CC9F0;}
</style>
<g>
	<path class="st0" d="M42.5,0C66,0,85,19,85,42.5S66,85,42.5,85S0,66,0,42.5S19,0,42.5,0z"/>
</g>
<path id="XMLID_459_" class="st1" d="M71,59.3c-0.8-1.4-2.1-2.5-3.6-3c2.3-1.6,3.5-4.5,2.7-7.3c-1-3.6-4.7-5.7-8.3-4.8l-1.2,0.3
	c0.7-1.8,1.2-3.7,1.3-5.7c0.1-0.6-0.4-1.2-1.1-1.3c-0.6-0.1-1.2,0.4-1.3,1.1c-0.2,2.4-0.8,4.6-1.9,6.7L52,46.9
	c0.1-0.5,0.1-1.1,0.1-1.6c0-1.9-0.5-3-1-4C50.6,40,50,38.8,50,35.9c0-0.5-0.3-0.9-0.7-1.1c-0.4-0.2-0.9-0.1-1.3,0.2
	c-1.1,1.1-1.8,2.2-2.3,3.3c-0.3-0.5-0.8-0.9-1.3-1.4c-1.2-1-1.4-2-0.7-3.6c0.2-0.4,0.1-1-0.3-1.3c-0.3-0.3-0.9-0.4-1.3-0.2
	c-2.4,1.1-3.7,2.6-4.4,4.2c0-0.1,0-0.2,0.1-0.4c0.1-0.5-0.2-1.1-0.7-1.3c-0.5-0.2-1.1-0.1-1.4,0.4c-2.8,3.8-3.9,6.8-3.9,10.6
	c0,0.5,0,1.1,0.1,1.6l-5.7-1.5c-1.3-2.5-2-5.3-2-8.2c0-3.2,0.8-4.9,1.8-7c1.1-2.4,2.3-5,2.6-9.9c2.3,2.9,3.1,6,3.4,8.3
	c0.1,0.5,0.5,0.9,1,1c0.5,0.1,1-0.2,1.2-0.7c1.2-2.6,2.8-4.8,4.9-6.5c2-1.6,3.1-3.4,3.5-5.5c0.2-1.1,0.2-2.2-0.1-3.5
	c3.6,2.4,5.6,5.7,6.1,9.9c0.5,3.9-0.6,7.2-0.6,7.3c-0.2,0.5,0,1.1,0.5,1.4c0.5,0.3,1.1,0.2,1.5-0.2c0.2-0.2,4.3-4.6,4.6-11.3
	c1.9,2.9,3.1,5.6,3.9,8.2c0.2,0.6,0.8,1,1.5,0.8c0.6-0.2,1-0.8,0.8-1.5c-1.2-3.9-3.3-7.8-6.7-12.5c-0.3-0.4-0.9-0.6-1.4-0.4
	c-0.5,0.2-0.8,0.8-0.7,1.3c0.6,3,0.4,6-0.8,9c0-0.7,0-1.5-0.1-2.3c-0.5-4.2-2.6-9.8-10-13.2c-0.4-0.2-1-0.1-1.3,0.2
	c-0.3,0.3-0.5,0.8-0.3,1.3c1.7,4,1.1,6.7-1.8,9.2c-1.5,1.3-2.8,2.8-3.9,4.5c-0.8-2.7-2.3-5.8-5.3-8.6c-0.3-0.3-0.8-0.4-1.3-0.2
	c-0.4,0.2-0.7,0.6-0.7,1.1c0,6.4-1.3,9.2-2.5,11.9c-1,2.2-2,4.3-2,8c0,2.5,0.5,5,1.4,7.4l-1.2-0.3c-3.6-1-7.3,1.2-8.3,4.8
	c-0.8,2.8,0.4,5.8,2.7,7.3c-1.5,0.5-2.8,1.6-3.6,3c-0.9,1.6-1.1,3.4-0.7,5.1c0.5,1.7,1.6,3.2,3.2,4.1c1,0.6,2.2,0.9,3.4,0.9
	c0.6,0,1.2-0.1,1.8-0.2L42,63.5l21.3,5.7c0.6,0.2,1.2,0.2,1.8,0.2c1.2,0,2.3-0.3,3.4-0.9c1.6-0.9,2.7-2.4,3.2-4.1
	C72.1,62.7,71.9,60.9,71,59.3L71,59.3z M62.4,46.5c2.4-0.6,4.8,0.8,5.4,3.1c0.3,1.1,0.1,2.3-0.4,3.4c-0.6,1-1.5,1.8-2.7,2.1L25,65.7
	c0.7-1.5,0.9-3.1,0.5-4.7C25,59.4,24,58,22.7,57.1L62.4,46.5z M34.2,45.3c0-2.2,0.4-4.1,1.5-6.1c0.6,2.4,2,3.9,2.1,4
	c0.4,0.4,1,0.5,1.4,0.2s0.7-0.9,0.5-1.4c-0.1-0.2-1.3-3.9,1.3-6.6c0.1,1.3,0.8,2.4,1.9,3.4c1.5,1.2,1.9,3.1,2,3.9
	c0,0.3,0,0.5,0.1,0.5c0.1,0.6,0.6,1,1.3,1c0.6-0.1,1.1-0.6,1.1-1.2c0,0,0-0.2,0-0.6c0-0.6,0-1.9,0.6-3.3c0.3,1.4,0.7,2.3,1.1,3.1
	c0.5,1,0.8,1.7,0.8,3.1c0,0.8-0.1,1.5-0.3,2.3l-7.4,2l-7.4-2C34.4,46.8,34.2,46,34.2,45.3L34.2,45.3z M16.2,49.6
	c0.6-2.4,3.1-3.8,5.4-3.1l15.9,4.3l-6.3,1.7l-8.5-2.3c-0.6-0.2-1.3,0.2-1.4,0.8c-0.2,0.6,0.2,1.3,0.8,1.4l4.5,1.2l-6.3,1.7l-1-0.3
	C17,54.4,15.6,52,16.2,49.6L16.2,49.6z M16.7,66.6c-1-0.6-1.8-1.5-2.1-2.7c-0.3-1.1-0.1-2.3,0.4-3.4c0.6-1,1.5-1.8,2.7-2.1
	c0.4-0.1,0.8-0.2,1.2-0.2c0.8,0,1.5,0.2,2.2,0.6c1,0.6,1.8,1.5,2.1,2.7c0.3,1.1,0.1,2.3-0.4,3.4c-0.6,1-1.5,1.8-2.7,2.1
	C18.9,67.3,17.7,67.2,16.7,66.6z M59.6,58.8c-0.4,0.6-0.8,1.4-1,2.1c-0.4,1.6-0.3,3.2,0.5,4.7l-12.5-3.4L59.6,58.8z M69.4,63.9
	c-0.3,1.1-1,2.1-2.1,2.7c-1,0.6-2.2,0.7-3.4,0.4c-1.1-0.3-2.1-1-2.7-2.1c-0.6-1-0.7-2.2-0.4-3.4c0.3-1.1,1-2.1,2.1-2.7
	c0.7-0.4,1.4-0.6,2.2-0.6c0.4,0,0.8,0.1,1.2,0.2c1.1,0.3,2.1,1,2.7,2.1C69.5,61.5,69.7,62.7,69.4,63.9L69.4,63.9z"/>
</svg>
